#N canvas -264 -1052 1920 1052 12;
#X obj 611 479 tabread4~ coffeeArray;
#X obj 613 440 line~;
#X obj 614 305 pack f f f;
#X msg 613 414 \$1 \, \$2 \$3;
#X obj 615 252 t f f;
#X obj 643 280 +;
#X floatatom 614 223 5 0 0 0 - - - 0;
#X floatatom 705 221 5 0 0 0 - - - 0;
#X obj 705 247 * 44.1;
#X obj 774 172 loadbang;
#X obj 774 209 samplerate~;
#X obj 776 240 / 1000;
#X obj 624 181 inlet;
#X obj 688 187 r grain_dur;
#X obj 611 529 outlet~;
#X connect 0 0 14 0;
#X connect 1 0 0 0;
#X connect 2 0 3 0;
#X connect 3 0 1 0;
#X connect 4 0 2 0;
#X connect 4 1 5 0;
#X connect 5 0 2 1;
#X connect 6 0 4 0;
#X connect 7 0 8 0;
#X connect 7 0 2 2;
#X connect 8 0 5 1;
#X connect 9 0 10 0;
#X connect 10 0 11 0;
#X connect 11 0 8 1;
#X connect 12 0 6 0;
#X connect 13 0 7 0;
