#N canvas -113 -1032 1700 931 12;
#X obj 528 447 *~;
#X floatatom 546 419 5 0 1 0 - - - 0;
#X obj 529 483 dac~;
#X obj 528 328 vline~;
#X obj 528 179 bng 15 250 50 0 empty empty empty 17 7 0 10 #fcfcfc #000000 #000000;
#X obj 528 271 pack f f f;
#X obj 528 236 f;
#X msg 528 301 \$1 \, \$2 \$3;
#X obj 47 249 soundfiler;
#X floatatom 47 287 7 0 0 0 - - - 0;
#X obj 546 388 r run;
#X obj 46 164 bng 19 250 50 0 empty loader empty 0 -10 0 12 #fcfcfc #000000 #000000;
#X floatatom 689 275 8 0 0 0 - - - 0;
#X obj 307 363 hsl 195 19 0 195584 0 0 empty empty empty -2 -10 0 12 #c6ffc7 #000000 #000000 0 1;
#X msg 204 326 range 0 \$1;
#N canvas 759 184 450 278 (subpatch) 0;
#X array Elevator 195584 float 2;
#X coords 0 1 195584 -1 200 140 1;
#X restore 304 189 graph;
#X msg 47 203 read -resize Elevator.wav Elevator;
#X obj 528 356 tabread4~ Elevator;
#X obj 304 395 s elevator_start;
#X obj 559 196 r elevator_start;
#X obj 561 236 r elevator_end;
#X obj 687 189 r elevator_end;
#X obj 47 322 s elevator_end;
#X obj 306 427 hsl 195 19 0 195584 0 0 empty empty empty -2 -10 0 12 #ffc7c6 #000000 #000000 0 1;
#X obj 303 463 s elevator_end;
#X floatatom 804 260 5 0.5 2 0 - - - 0;
#X obj 689 235 expr abs($f2 - $f1) / 44.1;
#X floatatom 690 368 5 0 0 1 Duration - - 0;
#X obj 530 874 *~;
#X floatatom 548 845 5 0 1 0 - - - 0;
#X obj 530 755 vline~;
#X obj 530 606 bng 15 250 50 0 empty empty empty 17 7 0 10 #fcfcfc #000000 #000000;
#X obj 530 698 pack f f f;
#X obj 530 656 f;
#X msg 530 728 \$1 \, \$2 \$3;
#X obj 49 676 soundfiler;
#X floatatom 49 714 7 0 0 0 - - - 0;
#X obj 548 815 r run;
#X obj 48 591 bng 19 250 50 0 empty loader empty 0 -10 0 12 #fcfcfc #000000 #000000;
#X floatatom 691 702 8 0 0 0 - - - 0;
#X obj 309 790 hsl 195 19 0 169984 0 0 empty empty empty -2 -10 0 12 #c6ffc7 #000000 #000000 0 1;
#X msg 167 753 range 0 \$1;
#N canvas 759 184 450 278 (subpatch) 0;
#X array Chair 169984 float 2;
#X coords 0 1 169984 -1 200 140 1 0 0;
#X restore 306 616 graph;
#X obj 308 854 hsl 195 19 0 169984 0 0 empty empty empty -2 -10 0 12 #ffc7c6 #000000 #000000 0 1;
#X obj 692 745 / 1;
#X floatatom 778 690 5 0.5 2 0 - - - 0;
#X obj 691 662 expr abs($f2 - $f1) / 44.1;
#X floatatom 692 795 5 0 0 1 Duration - - 0;
#X obj 49 749 s chair_end;
#X obj 306 822 s chair_start;
#X obj 305 890 s chair_end;
#X obj 561 623 r chair_start;
#X obj 689 616 r chair_end;
#X obj 563 663 r chair_end;
#X obj 530 783 tabread4~ Chair;
#X msg 49 630 read -resize Chair.wav Chair;
#X obj 868 278 vsl 19 72 0.4 3 0 0 empty empty Speed 0 -9 0 12 #dfdfdf #000000 #000000 0 1;
#X obj 755 276 t b f;
#X obj 528 112 tgl 19 0 empty Emetro empty 0 -10 0 12 #fcfcfc #000000 #000000 0 1;
#X obj 528 143 metro;
#X obj 577 27 vsl 19 122 300 2500 0 0 empty empty empty 0 -9 0 12 #fcfcfc #000000 #000000 0 1;
#X obj 509 1405 *~;
#X floatatom 527 1377 5 0 0.5 0 - - - 0;
#X obj 510 1441 dac~;
#X obj 509 1286 vline~;
#X obj 509 1137 bng 15 250 50 0 empty empty empty 17 7 0 10 #fcfcfc #000000 #000000;
#X obj 509 1229 pack f f f;
#X obj 509 1187 f;
#X obj 28 1207 soundfiler;
#X floatatom 28 1245 7 0 0 0 - - - 0;
#X obj 527 1346 r run;
#X obj 27 1122 bng 19 250 50 0 empty loader empty 0 -10 0 12 #fcfcfc #000000 #000000;
#X floatatom 670 1233 8 0 0 0 - - - 0;
#X obj 288 1321 hsl 195 19 0 106496 0 0 empty empty empty -2 -10 0 12 #c6ffc7 #000000 #000000 0 1;
#X msg 185 1284 range 0 \$1;
#N canvas 759 184 450 278 (subpatch) 0;
#X array Coffee 106496 float 2;
#X coords 0 1 106496 -1 200 140 1 0 0;
#X restore 285 1147 graph;
#X obj 287 1385 hsl 195 19 0 106496 0 0 empty empty empty -2 -10 0 12 #ffc7c6 #000000 #000000 0 1;
#X obj 671 1276 / 1;
#X floatatom 785 1218 5 0.5 2 0 - - - 0;
#X obj 670 1193 expr abs($f2 - $f1) / 44.1;
#X floatatom 671 1326 5 0 0 1 Duration - - 0;
#X obj 826 1242 vsl 19 72 0.4 3 0 0 empty empty Speed 0 -9 0 12 #dfdfdf #000000 #000000 0 1;
#X obj 736 1234 t b f;
#X obj 511 1050 tgl 19 0 empty Cmetro empty 0 -10 0 12 #fcfcfc #000000 #000000 0 1;
#X obj 511 1085 metro;
#X obj 569 983 vsl 19 122 300 2500 0 0 empty empty empty 0 -9 0 12 #fcfcfc #000000 #000000 0 1;
#X msg 28 1161 read -resize Coffee.wav Coffee;
#X obj 28 1280 s c_end;
#X obj 285 1353 s c_start;
#X obj 284 1421 s c_end;
#X obj 540 1154 r c_start;
#X obj 668 1147 r c_end;
#X obj 542 1194 r c_end;
#X obj 509 1314 tabread4~ Coffee;
#X obj 514 1948 *~;
#X floatatom 532 1920 5 0 1 0 - - - 0;
#X obj 515 1984 dac~;
#X obj 514 1829 vline~;
#X obj 514 1680 bng 15 250 50 0 empty empty empty 17 7 0 10 #fcfcfc #000000 #000000;
#X obj 514 1772 pack f f f;
#X obj 514 1730 f;
#X msg 514 1802 \$1 \, \$2 \$3;
#X obj 33 1750 soundfiler;
#X floatatom 33 1788 7 0 0 0 - - - 0;
#X obj 532 1889 r run;
#X obj 32 1665 bng 19 250 50 0 empty loader empty 0 -10 0 12 #fcfcfc #000000 #000000;
#X floatatom 675 1776 8 0 0 0 - - - 0;
#X obj 293 1864 hsl 195 19 0 184320 0 0 empty empty empty -2 -10 0 12 #c6ffc7 #000000 #000000 0 1;
#X msg 190 1827 range 0 \$1;
#N canvas 759 184 450 278 (subpatch) 0;
#X array Typing 184320 float 2;
#X coords 0 1 184320 -1 200 140 1 0 0;
#X restore 290 1690 graph;
#X obj 292 1928 hsl 195 19 0 184320 0 0 empty empty empty -2 -10 0 12 #ffc7c6 #000000 #000000 0 1;
#X obj 676 1819 / 1;
#X floatatom 790 1761 5 0.5 2 0 - - - 0;
#X obj 675 1736 expr abs($f2 - $f1) / 44.1;
#X floatatom 676 1869 5 0 0 1 Duration - - 0;
#X obj 828 1793 vsl 19 72 0.4 3 0 0 empty empty Speed 0 -9 0 12 #dfdfdf #000000 #000000 0 1;
#X obj 741 1777 t b f;
#X obj 518 1585 tgl 19 0 empty Tmetro empty 0 -10 0 12 #fcfcfc #000000 #000000 0 1;
#X obj 516 1628 metro;
#X obj 574 1526 vsl 19 122 300 2500 0 0 empty empty empty 0 -9 0 12 #fcfcfc #000000 #000000 0 1;
#X msg 33 1704 read -resize Typing.wav Typing;
#X obj 33 1823 s t_end;
#X obj 290 1896 s t_start;
#X obj 289 1964 s t_end;
#X obj 545 1697 r t_start;
#X obj 547 1737 r t_end;
#X obj 673 1690 r t_end;
#X obj 514 1857 tabread4~ Typing;
#X obj 522 2485 *~;
#X floatatom 540 2457 5 0 0.5 0 - - - 0;
#X obj 523 2521 dac~;
#X obj 522 2366 vline~;
#X obj 522 2217 bng 15 250 50 0 empty empty empty 17 7 0 10 #fcfcfc #000000 #000000;
#X obj 522 2309 pack f f f;
#X obj 522 2267 f;
#X msg 522 2339 \$1 \, \$2 \$3;
#X obj 41 2287 soundfiler;
#X floatatom 41 2325 7 0 0 0 - - - 0;
#X obj 540 2426 r run;
#X obj 40 2202 bng 19 250 50 0 empty loader empty 0 -10 0 12 #fcfcfc #000000 #000000;
#X floatatom 683 2313 8 0 0 0 - - - 0;
#X obj 301 2401 hsl 195 19 0 173056 0 0 empty empty empty -2 -10 0 12 #c6ffc7 #000000 #000000 0 1;
#X msg 198 2364 range 0 \$1;
#N canvas 759 184 450 278 (subpatch) 0;
#X array Marker 173056 float 2;
#X coords 0 1 173056 -1 200 140 1 0 0;
#X restore 298 2227 graph;
#X obj 300 2465 hsl 195 19 0 173056 0 0 empty empty empty -2 -10 0 12 #ffc7c6 #000000 #000000 0 1;
#X obj 684 2356 / 1;
#X floatatom 798 2298 5 0.5 2 0 - - - 0;
#X obj 683 2273 expr abs($f2 - $f1) / 44.1;
#X floatatom 684 2406 5 0 0 1 Duration - - 0;
#X obj 837 2324 vsl 19 72 0.4 3 0 0 empty empty Speed 0 -9 0 12 #dfdfdf #000000 #000000 0 1;
#X obj 749 2314 t b f;
#X obj 526 2122 tgl 19 0 empty Mmetro empty 0 -10 0 12 #fcfcfc #000000 #000000 0 1;
#X obj 524 2165 metro;
#X obj 582 2063 vsl 19 122 300 2500 0 0 empty empty empty 0 -9 0 12 #fcfcfc #000000 #000000 0 1;
#X msg 41 2241 read -resize Marker.wav Marker;
#X obj 41 2360 s m_end;
#X obj 298 2433 s m_start;
#X obj 297 2501 s m_end;
#X obj 553 2234 r m_start;
#X obj 681 2227 r m_end;
#X obj 555 2274 r m_end;
#X obj 522 2394 tabread4~ Marker;
#X obj 848 764 vsl 19 72 0.4 3 0 0 empty empty Speed 0 -9 0 12 #dfdfdf #000000 #000000 0 1;
#X obj 757 714 t b f;
#X obj 532 536 tgl 19 0 empty CHmetro empty 0 -10 0 12 #fcfcfc #000000 #000000 0 1;
#X obj 530 579 metro;
#X obj 590 490 vsl 19 102 300 2500 0 0 empty empty empty 0 -9 0 12 #fcfcfc #000000 #000000 0 1;
#X obj 1308 2418 soundfiler;
#X floatatom 1308 2456 7 0 0 0 - - - 0;
#X obj 1307 2509 array define coffeeArray;
#X msg 509 1259 \$1 \, \$2 \$3;
#X obj 530 920 dac~;
#X floatatom 1020 2389 7 0 0 0 - - - 0;
#X obj 1021 2504 dac~;
#X obj 1116 2506 s grain_dur;
#X floatatom 1116 2459 5 0 0 0 - - - 0;
#X obj 1020 2427 grain;
#X obj 1150 2283 tgl 19 0 empty empty empty 0 -10 0 12 #fcfcfc #000000 #000000 0 1;
#X obj 1020 2467 *~ 0.5;
#X obj 1018 2274 phasor~;
#X obj 1018 2307 *~;
#X obj 1308 2479 send fileDuration;
#X floatatom 1085 2275 5 0 0 0 - - - 0;
#X obj 1020 2347 snapshot~;
#X floatatom 1018 2193 5 0 0 0 - - - 0;
#X floatatom 1210 2285 5 0 0 0 - - - 0;
#X obj 1150 2313 metro 125;
#X obj 1150 2361 + 50;
#X obj 1150 2337 random 20;
#N canvas 0 25 1440 787 references 0;
#X msg 1515 1011 read -resize Coffee.wav coffeeArray;
#X text 551 412 https://www.youtube.com/watch?v=NxfgfFSPaEw;
#X text 552 361 http://pd-tutorial.com/english/index.html;
#X text 552 385 https://www.youtube.com/user/QCGInteractiveMusic/videos;
#X restore 1277 17 pd references;
#X msg 1308 2368 read -resize Coffee.wav coffeeArray;
#X obj 1018 2247 * 1;
#X obj 1037 2223 t b f;
#X floatatom 1068 2195 5 0 0 0 - - - 0;
#X obj 1085 2251 receive fileDuration;
#X msg 1277 2345 read -resize Typing.wav coffeeArray;
#X obj 1018 75 print;
#X obj 997 15 iemnet/udpreceive 5066;
#X obj 997 40 osc/unpackOSC;
#X obj 991 662 s loader;
#X obj 690 318 / 1;
#X obj 1019 586 s elevator_sliderend;
#X obj 108 415 r elevator_sliderend;
#X obj 1011 624 s elevator_sliderstr;
#X obj 108 384 * 195584;
#X obj 69 352 r elevator_sliderstr;
#X obj 1023 519 s run;
#X obj 147 447 * 195584;
#X obj 888 205 + 1;
#X obj 888 229 / 2;
#X obj 1087 510 s speed;
#X obj 888 180 r speed;
#X obj 888 695 + 1;
#X obj 888 719 / 2;
#X obj 888 670 r speed;
#X obj 875 1180 + 1;
#X obj 875 1204 / 2;
#X obj 875 1155 r speed;
#X obj 883 1730 + 1;
#X obj 883 1754 / 2;
#X obj 883 1705 r speed;
#X obj 886 2259 + 1;
#X obj 886 2283 / 2;
#X obj 886 2234 r speed;
#X obj 1203 461 s ele_met;
#X obj 633 29 r ele_met;
#X obj 633 53 * 2500;
#X obj 1158 549 s Emetro;
#X obj 623 455 * 2500;
#X obj 74 798 r chair_sliderstr;
#X obj 113 861 r chair_sliderend;
#X obj 152 893 * 169984;
#X obj 113 830 * 169984;
#X obj 1198 647 s chair_sliderstr;
#X obj 1235 677 s chair_sliderend;
#X obj 55 1335 r coffee_sliderstr;
#X obj 94 1398 r coffee_sliderend;
#X obj 133 1430 * 106496;
#X obj 94 1367 * 106496;
#X obj 1233 946 s coffee_sliderstr;
#X obj 1242 981 s coffee_sliderend;
#X obj 40 1874 r t_sliderstr;
#X obj 79 1937 r t_sliderend;
#X obj 79 1906 * 184320;
#X obj 118 1969 * 184320;
#X obj 104 2452 * 173056;
#X obj 143 2515 * 173056;
#X obj 65 2420 r m_sliderstr;
#X obj 104 2483 r m_sliderend;
#X obj 1284 620 s t_sliderstr;
#X obj 1307 598 s t_sliderend;
#X obj 1403 461 s m_sliderend;
#X obj 1336 442 s m_sliderstr;
#X obj 620 956 * 2500;
#X obj 623 431 r chair_met;
#X obj 1139 692 s chair_met;
#X obj 620 932 r coffee_met;
#X obj 604 1498 * 2500;
#X obj 604 1474 r typing_met;
#X obj 582 2030 * 2500;
#X obj 582 2006 r marker_met;
#X obj 1362 535 s coffee_met;
#X obj 1400 503 s typing_met;
#X obj 1433 603 s marker_met;
#X obj 1357 352 s CHmetro;
#X obj 1379 387 s Cmetro;
#X obj 1450 357 s Tmetro;
#X obj 1486 396 s Mmetro;
#X obj 998 124 osc/routeOSC /syntien/untitled/1/button1 /syntien/untitled/1/slider3 /syntien/untitled/1/slider6 /syntien/untitled/1/incrementbox1 /syntien/untitled/1/rotary1 /syntien/untitled/1/knob4 /syntien/untitled/1/incrementbox5 /syntien/untitled/1/button3 /syntien/untitled/1/knob1 /syntien/untitled/1/slider1 /syntien/untitled/1/slider8 /syntien/untitled/1/slider2 /syntien/untitled/1/slider7 /syntien/untitled/1/slider4 /syntien/untitled/1/slider9 /syntien/untitled/1/slider5 /syntien/untitled/1/slider10 /syntien/untitled/1/knob3 /syntien/untitled/1/knob2 /syntien/untitled/1/knob5 /syntien/untitled/1/button6 /syntien/untitled/1/incrementbox5 /syntien/untitled/1/button5 /syntien/untitled/1/incrementbox2 /syntien/untitled/1/button2 /syntien/untitled/1/incrementbox3 /syntien/untitled/1/button4 /syntien/untitled/1/incrementbox6, f 66;
#X connect 0 0 2 0;
#X connect 0 0 2 1;
#X connect 1 0 0 1;
#X connect 3 0 17 0;
#X connect 4 0 6 0;
#X connect 5 0 7 0;
#X connect 6 0 5 0;
#X connect 7 0 3 0;
#X connect 8 0 9 0;
#X connect 9 0 22 0;
#X connect 9 0 14 0;
#X connect 10 0 1 0;
#X connect 11 0 16 0;
#X connect 12 0 200 0;
#X connect 13 0 18 0;
#X connect 14 0 23 0;
#X connect 14 0 13 0;
#X connect 16 0 8 0;
#X connect 17 0 0 0;
#X connect 19 0 6 1;
#X connect 19 0 26 0;
#X connect 20 0 5 1;
#X connect 21 0 26 1;
#X connect 23 0 24 0;
#X connect 25 0 57 0;
#X connect 26 0 12 0;
#X connect 27 0 5 2;
#X connect 28 0 171 0;
#X connect 28 0 171 1;
#X connect 29 0 28 1;
#X connect 30 0 54 0;
#X connect 31 0 33 0;
#X connect 32 0 34 0;
#X connect 33 0 32 0;
#X connect 34 0 30 0;
#X connect 35 0 36 0;
#X connect 36 0 41 0;
#X connect 36 0 48 0;
#X connect 37 0 29 0;
#X connect 38 0 55 0;
#X connect 39 0 44 0;
#X connect 40 0 49 0;
#X connect 41 0 40 0;
#X connect 41 0 43 0;
#X connect 43 0 50 0;
#X connect 44 0 47 0;
#X connect 45 0 163 0;
#X connect 46 0 39 0;
#X connect 47 0 32 2;
#X connect 51 0 33 1;
#X connect 51 0 46 0;
#X connect 52 0 46 1;
#X connect 53 0 32 1;
#X connect 54 0 28 0;
#X connect 55 0 35 0;
#X connect 56 0 25 0;
#X connect 57 0 200 0;
#X connect 57 1 200 1;
#X connect 58 0 59 0;
#X connect 59 0 4 0;
#X connect 60 0 59 1;
#X connect 61 0 63 0;
#X connect 61 0 63 1;
#X connect 62 0 61 1;
#X connect 64 0 93 0;
#X connect 65 0 67 0;
#X connect 66 0 170 0;
#X connect 67 0 66 0;
#X connect 68 0 69 0;
#X connect 69 0 74 0;
#X connect 69 0 87 0;
#X connect 70 0 62 0;
#X connect 71 0 86 0;
#X connect 72 0 77 0;
#X connect 73 0 88 0;
#X connect 74 0 76 0;
#X connect 74 0 73 0;
#X connect 76 0 89 0;
#X connect 77 0 80 0;
#X connect 78 0 82 0;
#X connect 79 0 72 0;
#X connect 80 0 66 2;
#X connect 81 0 78 0;
#X connect 82 0 77 0;
#X connect 82 1 77 1;
#X connect 83 0 84 0;
#X connect 84 0 65 0;
#X connect 85 0 84 1;
#X connect 86 0 68 0;
#X connect 90 0 67 1;
#X connect 90 0 79 0;
#X connect 91 0 79 1;
#X connect 92 0 66 1;
#X connect 93 0 61 0;
#X connect 94 0 96 0;
#X connect 94 0 96 1;
#X connect 95 0 94 1;
#X connect 97 0 127 0;
#X connect 98 0 100 0;
#X connect 99 0 101 0;
#X connect 100 0 99 0;
#X connect 101 0 97 0;
#X connect 102 0 103 0;
#X connect 103 0 108 0;
#X connect 103 0 121 0;
#X connect 104 0 95 0;
#X connect 105 0 120 0;
#X connect 106 0 111 0;
#X connect 107 0 122 0;
#X connect 108 0 110 0;
#X connect 108 0 107 0;
#X connect 110 0 123 0;
#X connect 111 0 114 0;
#X connect 112 0 116 0;
#X connect 113 0 106 0;
#X connect 114 0 99 2;
#X connect 115 0 112 0;
#X connect 116 0 111 0;
#X connect 116 1 111 1;
#X connect 117 0 118 0;
#X connect 118 0 98 0;
#X connect 119 0 118 1;
#X connect 120 0 102 0;
#X connect 124 0 100 1;
#X connect 124 0 113 0;
#X connect 125 0 99 1;
#X connect 126 0 113 1;
#X connect 127 0 94 0;
#X connect 128 0 130 0;
#X connect 128 0 130 1;
#X connect 129 0 128 1;
#X connect 131 0 161 0;
#X connect 132 0 134 0;
#X connect 133 0 135 0;
#X connect 134 0 133 0;
#X connect 135 0 131 0;
#X connect 136 0 137 0;
#X connect 137 0 142 0;
#X connect 137 0 155 0;
#X connect 138 0 129 0;
#X connect 139 0 154 0;
#X connect 140 0 145 0;
#X connect 141 0 156 0;
#X connect 142 0 144 0;
#X connect 142 0 141 0;
#X connect 144 0 157 0;
#X connect 145 0 148 0;
#X connect 146 0 150 0;
#X connect 147 0 140 0;
#X connect 148 0 133 2;
#X connect 149 0 146 0;
#X connect 150 0 145 0;
#X connect 150 1 145 1;
#X connect 151 0 152 0;
#X connect 152 0 132 0;
#X connect 153 0 152 1;
#X connect 154 0 136 0;
#X connect 158 0 134 1;
#X connect 158 0 147 0;
#X connect 159 0 147 1;
#X connect 160 0 133 1;
#X connect 161 0 128 0;
#X connect 162 0 45 0;
#X connect 163 0 44 0;
#X connect 163 1 44 1;
#X connect 164 0 165 0;
#X connect 165 0 31 0;
#X connect 166 0 165 1;
#X connect 167 0 168 0;
#X connect 168 0 181 0;
#X connect 170 0 64 0;
#X connect 172 0 176 0;
#X connect 175 0 174 0;
#X connect 176 0 178 0;
#X connect 177 0 186 0;
#X connect 178 0 173 0;
#X connect 178 0 173 1;
#X connect 179 0 180 0;
#X connect 180 0 183 0;
#X connect 182 0 180 1;
#X connect 183 0 172 0;
#X connect 184 0 191 0;
#X connect 185 0 186 1;
#X connect 186 0 183 0;
#X connect 186 0 188 0;
#X connect 187 0 185 0;
#X connect 188 0 187 0;
#X connect 190 0 167 0;
#X connect 191 0 179 0;
#X connect 192 0 191 0;
#X connect 192 1 191 1;
#X connect 193 0 192 0;
#X connect 194 0 182 0;
#X connect 195 0 167 0;
#X connect 197 0 198 0;
#X connect 198 0 196 0;
#X connect 198 0 268 0;
#X connect 200 0 27 0;
#X connect 202 0 207 0;
#X connect 204 0 13 0;
#X connect 205 0 204 0;
#X connect 207 0 23 0;
#X connect 208 0 209 0;
#X connect 209 0 56 0;
#X connect 211 0 208 0;
#X connect 212 0 213 0;
#X connect 213 0 162 0;
#X connect 214 0 212 0;
#X connect 215 0 216 0;
#X connect 216 0 81 0;
#X connect 217 0 215 0;
#X connect 218 0 219 0;
#X connect 219 0 115 0;
#X connect 220 0 218 0;
#X connect 221 0 222 0;
#X connect 222 0 149 0;
#X connect 223 0 221 0;
#X connect 225 0 226 0;
#X connect 226 0 60 0;
#X connect 228 0 166 0;
#X connect 229 0 232 0;
#X connect 230 0 231 0;
#X connect 231 0 43 0;
#X connect 232 0 40 0;
#X connect 235 0 238 0;
#X connect 236 0 237 0;
#X connect 237 0 76 0;
#X connect 238 0 73 0;
#X connect 241 0 243 0;
#X connect 242 0 244 0;
#X connect 243 0 107 0;
#X connect 244 0 110 0;
#X connect 245 0 141 0;
#X connect 246 0 144 0;
#X connect 247 0 245 0;
#X connect 248 0 246 0;
#X connect 253 0 85 0;
#X connect 254 0 228 0;
#X connect 256 0 253 0;
#X connect 257 0 119 0;
#X connect 258 0 257 0;
#X connect 259 0 153 0;
#X connect 260 0 259 0;
#X connect 268 0 199 0;
#X connect 268 1 203 0;
#X connect 268 2 201 0;
#X connect 268 3 206 0;
#X connect 268 4 210 0;
#X connect 268 5 224 0;
#X connect 268 6 227 0;
#X connect 268 7 227 0;
#X connect 268 8 255 0;
#X connect 268 9 233 0;
#X connect 268 10 234 0;
#X connect 268 11 239 0;
#X connect 268 12 240 0;
#X connect 268 13 249 0;
#X connect 268 14 250 0;
#X connect 268 15 252 0;
#X connect 268 16 251 0;
#X connect 268 17 261 0;
#X connect 268 18 262 0;
#X connect 268 19 263 0;
#X connect 268 20 264 0;
#X connect 268 21 264 0;
#X connect 268 22 265 0;
#X connect 268 23 265 0;
#X connect 268 24 266 0;
#X connect 268 25 266 0;
#X connect 268 26 267 0;
#X connect 268 27 267 0;
